<svg width="1024" height="1024" viewBox="0 0 1024 1024" fill="none" xmlns="http://www.w3.org/2000/svg">
<rect width="1024" height="1024" rx="506" fill="#F3952D"/>
<circle cx="513" cy="513" r="461" fill="white"/>
<ellipse cx="512" cy="512.5" rx="444" ry="444.5" fill="#31892C"/>
<path d="M544.931 537.313C526.965 534.643 508.999 531.974 491.034 529.305C470.11 526.167 449.206 522.799 428.243 519.95C421.237 519.007 419.812 516.1 421.66 509.671C425.183 497.294 430.573 486.572 441.525 478.873C467.973 460.182 493.921 440.798 520.446 422.127C526.529 417.853 528.454 413.869 527.222 406.265C523.16 381.242 520.177 356.102 516.77 331.021C515.961 325.034 515.095 319.087 513.902 310.54L395.828 361.357C397.58 352.06 401.333 343.629 410.592 339.356C431.516 329.731 452.709 320.53 473.864 311.31C484.162 306.844 494.499 302.436 505.009 298.529C510.475 296.488 512.15 293.678 511.457 287.73C506.837 248.269 502.699 208.809 498.233 169.252C497.27 160.706 494.98 152.255 494.73 143.709C494.595 138.993 497.001 134.084 499.022 129.464C501.794 123.151 505.297 117.164 509.859 108.291C523.218 146.962 534.556 183.169 543.545 220.07L540.485 221.84C538.408 220.299 536.41 218.654 534.498 216.913C532.766 215.18 531.38 213.063 528.011 208.963C527.299 214.738 526.259 218.299 526.567 221.648C528.3 240.897 530.417 259.934 532.227 279.087C532.92 286.787 537.02 286.074 542.178 283.899L613.919 253.505C617.384 252.023 620.811 250.483 626.412 248.038C623.833 259.203 619.617 266.209 610.724 270.098C588.395 279.857 566.124 289.732 543.738 299.356C539.041 301.377 534.825 303.206 535.653 309.462C539.734 339.978 543.802 370.481 547.857 400.972C548.337 402.264 548.984 403.487 549.782 404.61C552.823 403.436 555.941 402.223 559.079 401.049C579.021 393.715 598.058 394.138 615.421 407.902C630.127 419.547 630.281 435.601 627.663 451.847C623.082 480.105 612.591 486.014 585.527 476.717C569.386 471.084 555.121 461.09 544.315 447.843C542.39 445.572 536.981 443.3 535.249 444.359C512.785 458.315 490.707 472.867 468.532 487.246L469.706 491.096C473.806 492.174 477.848 493.54 481.987 494.31C535.884 504.089 589.839 513.816 643.852 523.492C656.498 525.763 656.826 526.321 650.993 538.121C649.28 541.567 648.125 545.628 645.546 548.227C642.293 551.48 637.981 555.464 633.861 555.811C584.295 559.988 536.23 569.285 491.034 591.499C477.496 598.091 462.922 602.297 447.954 603.934C414.788 607.437 399.524 596.677 388.417 565.84C377.965 569.305 372.556 576.042 372.633 586.475C372.787 608.707 371.767 630.747 363.875 651.921C362.123 656.618 359.89 661.142 357.888 665.761L354.77 665.376V594.54C348.995 596.888 345.915 598.12 342.816 599.506C325.627 607.206 308.399 606.166 291.46 599.083C277.812 593.308 269.574 582.971 266.282 568.4C262.124 550.075 263.876 532.192 268.477 513.001C265.454 514.811 262.375 516.524 259.391 518.41C227.688 538.429 196.197 558.833 164.166 578.255C157.175 582.145 149.385 584.378 141.394 584.781C124.956 585.916 112.906 574.964 112.386 558.371C111.953 548.473 113.038 538.567 115.601 528.997C119.566 515.176 125.437 501.914 130.865 488.574C134.08 480.644 141.414 473.502 134.157 464.109C133.368 463.088 133.772 460.952 133.984 459.393C136.197 443.069 145.803 431 155.889 419.239L158.295 420.51C156.005 424.359 153.656 428.209 151.462 432.213C148.017 437.974 144.9 443.925 142.126 450.038C140.952 452.925 141.876 456.678 141.837 460.028L153.387 458.661C151.75 462.761 150.345 466.573 148.728 470.326C140.875 488.497 132.79 506.572 125.264 524.878C123.952 528.851 123.589 533.077 124.205 537.216C125.322 548.631 133.83 555.33 144.975 552.885C152.867 551.454 160.457 548.687 167.419 544.704C208.702 518.859 249.767 492.61 290.613 465.957C303.818 457.314 303.587 452.925 289.978 444.783C279.709 438.862 268.843 434.043 257.562 430.404C224.569 419.374 194.041 404.706 170.133 378.335C165.321 373.042 162.876 368.999 164.705 361.665C170.48 338.913 166.823 336.642 191.808 349.596C196.254 351.906 200.277 354.967 205.282 358.124L197.736 366.574C199.296 367.613 200.909 368.57 202.568 369.442C217.967 376.583 233.366 383.84 248.766 390.616C263.395 397.084 278.871 401.915 292.865 409.518C321.238 424.918 325.165 463.993 301.45 486.341C298.98 488.869 296.266 491.145 293.346 493.136C280.065 501.355 276.657 514.31 276.022 528.612C274.81 555.811 292.384 572.692 319.737 570.671C350.092 568.419 352.806 565.339 349.457 535.311C339.063 441.953 328.578 348.595 318.004 255.238C315.868 236.547 312.23 218.01 309.323 199.415C308.843 197.89 308.757 196.267 309.073 194.699C313.173 185.075 317.523 175.701 322.085 165.576C331.96 178.915 360.429 264.843 358.158 275.661L346.493 265.863C338.312 271.253 341.276 279.203 342.066 285.959C345.492 314.948 349.765 343.802 353.134 372.811C359.216 426.708 364.683 480.605 370.573 534.387C370.939 537.794 371.594 541.182 372.498 546.456C378.87 541.085 383.72 536.6 389.033 532.712C391.131 531.172 394.808 529.748 396.733 530.576C398.33 531.23 399.447 535.407 399.177 537.852C397.599 551.98 404.952 561.586 416.771 565.628C427.897 569.478 441.314 572.943 452.112 570.228C483.681 562.298 514.421 551.172 545.489 541.355L544.931 537.313ZM568.934 432.54C582.794 441.568 595.594 448.19 612.091 448.613C604.006 433.118 583.949 425.572 568.934 432.54Z" fill="#EEC82C"/>
<path d="M709.414 750.091C727.604 759.023 757.979 750.688 766.468 735.635C768.395 731.62 769.168 727.148 768.701 722.719C766.141 686.589 763.581 650.459 760.366 614.367C755.695 562.009 750.709 509.671 745.409 457.352C739.519 399.605 732.936 341.858 726.988 284.227C725.256 267.364 727.181 249.694 722.85 233.621C717.883 215.219 731.685 206.672 737.421 193.198C750.081 228.934 760.086 265.555 767.353 302.763L764.119 304.688L754.245 294.024H751.627C751.627 298.067 751.28 302.147 751.627 306.171C759.923 389.423 768.951 472.617 776.381 555.946C780.346 600.604 782.945 645.492 783.215 690.285C783.349 711.016 778.287 732.305 772.32 752.382C764.62 778.118 730.665 792.131 705.968 781.256C699.924 778.599 694.611 772.978 690.569 767.531C686.527 762.084 683.216 761.275 677.98 764.894C641.599 790.052 604.622 814.248 576.538 849.59C563.872 865.566 548.338 879.291 533.843 893.862C519.83 907.876 503.488 912.669 484.643 904.469C465.798 896.269 458.541 880.157 456.944 860.658C454.595 832.092 464.239 806.915 479.253 783.527C486.601 772.64 494.517 762.148 502.968 752.093C505.355 749.11 509.051 747.204 512.15 744.798L514.402 746.723C512.976 749.559 511.409 752.322 509.705 755C500.6 768.166 489.648 780.428 482.641 794.614C474.962 810.372 469.29 827.03 465.76 844.2C463.2 856.539 464.489 871.149 477.598 878.348C490.706 885.547 504.431 881.139 515.422 872.573C527.222 863.353 537.635 852.323 548.453 841.775C576.788 814.383 604.507 786.318 633.534 759.677C643.755 750.284 656.633 743.643 668.972 736.79C675.401 733.191 677.364 729.495 676.132 722.334C672.282 699.832 673.36 677.523 681.907 656.079C684.338 649.792 687.573 643.846 691.531 638.389C700.54 626.243 714.438 624.915 723.061 637.08C730.395 647.456 736.805 660.179 738.461 672.479C740.52 687.705 738.037 703.759 736.074 719.274C734.245 733.941 726.103 744.836 709.414 750.091ZM681.657 688.803L683.177 689.63C683.832 694.673 684.313 699.775 685.102 704.779C688.952 727.108 688.952 726.935 710.415 719.582C719.057 716.617 725.025 711.555 726.16 702.258C728.201 685.857 721.81 672.864 708.836 663.163C702.08 658.1 695.054 658.851 690.858 666.358C687.027 673.403 684.737 681.295 681.657 688.803Z" fill="#EEC82C"/>
<path d="M660.637 860.869C682.369 845.085 703.601 828.55 725.968 813.709C780.597 777.444 821.655 728.609 855.495 673.538C893.627 611.479 894.685 544.897 875.186 476.697C860.788 426.284 837.631 379.971 808.835 336.334C807.064 333.658 805.447 330.848 803.465 328.345C794.957 317.624 791.915 306.132 795.765 292.446C798.344 283.014 798.729 272.966 800.308 261.513C803.022 263.842 805.004 264.843 805.928 266.46C827.641 304.573 852.338 341.377 870.297 381.222C919.459 490.364 916.822 600.353 863.117 707.147C836.38 760.351 797.671 804.624 741.848 830.533C718.904 841.197 695.439 850.687 672.109 860.485C668.556 861.624 664.901 862.416 661.195 862.852L660.637 860.869Z" fill="#EEC82C"/>
<path d="M428.128 625.897C439.504 634.828 449.417 642.297 458.926 650.227C462.641 653.307 464.162 657.042 457.714 659.467C449.802 662.451 451.169 667.475 454.769 673.211C462.237 685.126 470.283 696.791 476.674 709.264C487.665 730.727 485.047 752.844 476.982 774.576C475.466 778.471 472.909 781.873 469.59 784.412C427.512 815.75 382.585 841.293 329.419 847.761C316.67 849.145 303.784 848.568 291.21 846.048C263.607 840.716 245.282 824.47 239.237 796.116C230.633 756.328 244.492 721.295 260.815 686.781L264.511 687.513C264.098 690.82 263.455 694.093 262.586 697.311C258.448 709.418 253.501 721.276 249.94 733.537C247.938 740.963 246.909 748.618 246.879 756.309C246.186 792.516 267.456 814.633 303.798 815.981C336.012 817.354 368.027 810.315 396.694 795.558C417.483 784.855 438.015 773.665 458.291 761.987C471.303 754.519 472.112 751.343 465.529 738.08C460.832 728.648 454.826 719.87 449.61 710.669C439.523 692.896 429.546 675.072 419.678 657.196C418.942 655.434 418.867 653.465 419.466 651.652C421.968 643.76 424.74 635.906 428.128 625.897Z" fill="#EEC82C"/>
<path d="M642.678 143.92C657.858 178.799 670.561 214.704 680.694 251.368L675.593 254.737L669.184 240.916C659.559 246.518 660.618 252.677 661.272 258.144C664.179 282.34 667.624 306.459 670.492 330.636C675.805 375.197 680.829 419.759 686.007 464.32C686.219 466.245 686.816 467.939 687.932 472.771C695.17 465.071 701.291 458.892 706.642 452.193C707.451 451.173 705.372 446.63 703.505 444.898C698.654 440.375 690.338 436.429 694.188 429.037C698.641 420.401 704.991 412.886 712.763 407.054C718.769 402.723 724.467 408.479 725.602 415.332C726.353 419.874 724.64 424.783 724.736 429.499C724.736 433.522 726.218 437.506 726.449 441.529C726.642 444.994 726.834 448.902 725.41 451.828C724.659 453.368 720.386 453.079 717.71 453.753C715.035 454.426 711.531 454.734 709.683 456.524C703.078 462.601 696.993 469.22 691.493 476.312C689.044 480.271 687.819 484.865 687.971 489.517C687.643 514.791 688.471 540.104 687.566 565.358C686.95 582.355 681.907 598.621 673.226 615.502C671.551 574.425 669.953 535.272 668.279 493.81L648.76 503.627L647.836 502.626C648.452 501.856 648.895 500.701 649.761 500.354C664.91 494.253 667.085 483.261 665.16 467.997C656.498 398.7 648.991 329.211 641.003 259.819C638.212 235.642 637.808 210.772 631.379 187.539C626.335 169.214 636.749 158.145 642.678 143.92ZM712.34 433.252L715.805 431.212C716.69 426.111 715.805 421.587 709.857 419.663C708.432 419.22 706.219 421.28 704.371 422.203L712.34 433.252Z" fill="#EEC82C"/>
<path d="M628.068 722.411C619.405 719.293 612.476 717.503 606.355 714.211C604.064 712.979 602.043 707.878 602.659 705.164C604.896 695.842 607.692 686.663 611.032 677.676C613.111 671.902 611.667 668.957 605.816 666.878C588.491 660.718 587.972 662.912 595.517 642.47C598.385 634.674 601.6 627.071 604.718 619.371C605.45 617.619 606.836 614.405 607.259 614.501C615.536 616.58 623.736 618.89 631.86 621.489C636.941 623.105 637.519 626.763 635.709 631.421C632.052 640.622 628.876 650.035 625.007 659.14C622.543 664.914 624.083 667.667 629.742 670.073C646.258 677.08 646.219 677.292 641.195 694.577C639.284 701.677 637.01 708.673 634.381 715.539C633.168 718.311 630.031 720.332 628.068 722.411Z" fill="#EEC82C"/>
<path d="M303.722 637.793C297.947 644.876 292.807 652.326 286.282 658.139C284.607 659.621 278.024 656.406 274.193 654.289C268.553 651.305 263.356 647.494 258.005 644.01C246.052 636.311 247.688 635.117 239.564 648.245C234.387 656.58 229.94 658.562 221.432 652.422C213.732 646.82 204.936 642.663 196.524 638.024C191.615 635.329 190.922 632.114 193.29 626.994C203.299 605.32 204.974 604.665 225.57 616.407C227.245 617.35 228.939 618.332 230.614 619.16C245.378 627.379 245.455 627.417 254.944 613.789C257.832 609.651 260.719 606.783 265.917 610.151C276.888 617.35 287.86 624.549 298.64 631.922C300.411 633.173 301.527 635.213 303.722 637.793Z" fill="#EEC82C"/>
<path d="M381.622 449.672L434.211 428.729L433.556 425.11C417.964 420.529 402.296 416.621 385.434 422.184C387.974 409.191 404.201 394.947 416.925 395.486C429.033 396.006 441.083 398.123 453.132 399.778C461.41 400.933 462.757 406.265 458.426 412.136C444.105 431.905 426.492 447.189 401.122 450.634C394.846 451.462 388.494 451.731 382.18 452.251L381.622 449.672Z" fill="#EEC82C"/>
<path d="M554.325 637.215C553.739 638.846 552.977 640.408 552.053 641.873C547.86 647.504 543.281 652.836 538.348 657.831C537.059 658.712 535.573 659.259 534.021 659.423C532.468 659.588 530.9 659.365 529.455 658.774C519.003 652.018 509.032 644.491 498.926 637.215C498.156 636.657 497.155 636.041 496.867 635.29C493.575 625.801 502.218 621.816 506.395 616.176C509.224 612.326 512.458 605.416 519.234 609.901C530.148 617.138 540.6 625.069 551.129 632.846C552.41 634.131 553.488 635.605 554.325 637.215V637.215Z" fill="#EEC82C"/>
<path d="M371.613 709.206C370.958 710.965 370.119 712.649 369.11 714.23C364.972 719.485 361.084 725.106 356.156 729.514C354.751 730.446 353.14 731.02 351.463 731.188C349.785 731.356 348.093 731.112 346.531 730.477C336.299 723.98 326.465 716.877 317.08 709.206C315.001 707.513 315.598 702.469 315.155 698.947C315.155 698.465 315.81 697.907 316.176 697.368C328.476 678.851 330.824 678.37 348.899 690.727C354.943 694.885 360.929 699.139 367.051 703.181C369.281 704.465 371.589 705.609 373.961 706.608L371.613 709.206Z" fill="#EEC82C"/>
<path d="M273.366 208.732C304.703 226.576 298.948 290.213 279.545 306.632C280.815 301.724 281.47 298.452 282.509 295.256C289.92 271.33 286.224 249.713 269.381 230.695C263.472 223.996 264.146 220.281 273.366 208.732Z" fill="#EEC82C"/>
<path d="M818.844 541.625C817.497 538.545 816.015 535.503 814.783 532.366C812.358 526.264 811.491 518.891 801.636 520.431C800.153 520.662 796.4 516.177 796.419 513.887C796.669 509.58 797.929 505.393 800.096 501.664C800.558 500.817 806.352 501.202 807.796 502.741C812.916 508.612 817.227 515.176 821.789 521.394C823.907 510.691 825.832 498.988 828.815 487.554C829.566 484.628 833.993 480.316 836.207 480.605C838.311 480.944 840.324 481.71 842.121 482.855C843.919 484 845.463 485.501 846.659 487.265C848.18 490.018 846.005 494.811 845.446 498.815C830.663 494.503 829.701 495.311 828.604 509.787C828.026 517.486 827.275 525.09 826.005 532.654C825.485 535.792 823.426 538.679 822.155 541.663L818.844 541.625Z" fill="#EEC82C"/>
<path d="M164.359 632.961C165.552 637.427 166.765 641.873 167.958 646.339C171.173 658.37 173.733 670.67 177.968 682.296C179.604 686.724 185.34 689.649 189.209 693.249C191.134 688.86 193.213 684.471 195.792 678.774C198.626 680.681 200.904 683.305 202.395 686.378C203.886 689.451 204.537 692.865 204.281 696.271C203.951 698.516 203.14 700.664 201.904 702.567C200.668 704.471 199.037 706.085 197.121 707.301C190.172 710.843 183.531 706.916 179.796 701.083C174.772 693.384 169.691 685.203 167.323 676.483C163.473 662.605 162.029 648.129 159.623 633.904L164.359 632.961Z" fill="#EEC82C"/>
<path d="M633.245 859.56C633.245 862.525 633.939 866.375 633.092 869.839C631.571 876.095 628.202 881.389 620.695 880.985C613.188 880.58 609.954 874.709 610.012 868.415C610.012 860.85 610.686 852.689 613.612 845.894C619.155 832.978 626.527 820.87 633.149 808.377L636.999 810.302C635.401 814.152 633.861 818.002 632.225 821.852C627.779 832.131 622.601 842.179 619.155 852.65C617.943 856.288 620.637 861.216 621.542 865.547L633.245 859.56Z" fill="#EEC82C"/>
<path d="M818.401 400.972C816.823 406.015 815.168 411.039 813.686 416.121C810.991 425.303 807.661 434.407 805.986 443.782C805.255 448.093 807.911 452.983 809.162 457.603L822.251 450.442C821.732 455.716 822.251 461.433 820.326 466.149C819.395 467.881 818.074 469.372 816.467 470.504C814.86 471.637 813.012 472.38 811.068 472.674C807.815 472.828 803.792 469.691 801.232 466.9C799.347 464.304 798.299 461.195 798.229 457.987C796.477 436.332 805.697 418.027 815.033 399.778L818.401 400.972Z" fill="#EEC82C"/>
<path d="M302.451 701.276C300.423 705.767 298.389 710.259 296.349 714.75C292.153 724.067 287.283 733.171 284.107 742.834C282.778 746.896 285.031 752.132 285.647 756.848L299.698 750.823C298.024 756.597 297.542 762.969 294.578 767.704C290.247 774.614 279.968 773.229 276.599 765.779C275.138 762.244 274.443 758.439 274.559 754.615C274.732 739.216 288.207 711.247 302.451 701.276Z" fill="#EEC82C"/>
<path d="M441.699 866.105C441.275 869.608 442.064 875.056 439.774 878.386C437.156 882.236 431.709 886.317 427.628 886.201C424.394 886.105 418.85 879.868 418.735 876.211C418.427 867.491 419.101 858.021 422.334 850.051C427.32 837.655 434.769 826.24 441.179 814.421L444.759 816.154C443.239 820.004 441.891 823.988 440.197 827.8C435.943 837.424 430.9 846.76 427.474 856.673C426.049 860.85 427.916 866.182 428.282 870.994L441.699 866.105Z" fill="#EEC82C"/>
<path d="M414.596 738.927C414.849 741.727 414.817 744.545 414.499 747.339C413.19 754.114 409.841 759.774 402.045 759.485C394.25 759.196 390.38 752.863 391.478 746.184C393.262 734.355 396.268 722.744 400.448 711.536C403.759 702.989 409.937 695.559 414.827 687.628L417.926 689.207C416.559 692.768 415.366 696.425 413.768 699.909C409.533 709.187 404.355 718.138 401.121 727.743C399.505 732.517 401.314 738.446 401.583 743.855L414.596 738.927Z" fill="#EEC82C"/>
<path d="M560.715 771.997C559.983 776.482 560.561 781.621 558.251 784.682C555.383 788.435 550.09 792.574 545.97 792.381C542.621 792.266 537.597 786.607 536.673 782.545C535.364 776.924 536.557 770.476 537.77 764.605C541.139 748.34 551.071 735.616 559.521 722.123L562.563 723.566C561.331 726.896 560.272 730.323 558.828 733.576C554.401 743.508 549.204 753.133 545.662 763.373C544.199 767.704 546.471 773.267 547.029 778.272L560.715 771.997Z" fill="#EEC82C"/>
<path d="M839.73 634.135C839.73 637.408 841.039 642.278 839.383 645.685C837.458 649.727 833.127 654.886 829.451 655.213C825.774 655.54 819.961 651.017 818.537 647.302C816.381 641.642 816.438 634.77 816.881 628.514C818.075 611.749 825.524 597.216 832.704 582.663L835.88 583.626C834.821 587.649 833.801 591.691 832.685 595.695C829.836 605.82 826.332 615.81 824.369 626.089C823.522 630.497 825.832 635.521 826.717 640.276L839.73 634.135Z" fill="#EEC82C"/>
<path d="M422.719 187.096C424.182 194.218 423.469 201.34 415.019 202.63C406.569 203.92 404.913 196.547 404.49 189.81C403.547 174.218 409.514 160.802 416.925 147.866L419.369 148.502C418.195 152.351 416.925 156.375 415.828 160.359C413.709 167.048 411.955 173.846 410.572 180.725C410.072 183.824 411.843 187.288 412.497 190.58L422.719 187.096Z" fill="#EEC82C"/>
<path d="M257.947 296.681C255.637 303.841 253.25 311.002 251.075 318.22C249.934 321.201 249.284 324.348 249.15 327.537C249.623 331.098 250.462 334.6 251.653 337.989L262.721 332.58C261.008 338.547 260.45 343.456 258.14 347.286C257.043 349.115 251.018 350.424 249.959 349.327C246.937 346.189 243.818 341.839 243.395 337.777C241.855 322.378 248.053 308.904 255.252 295.834L257.947 296.681Z" fill="#EEC82C"/>
<path d="M216.697 257.451C215.272 262.918 214.618 265.728 213.79 268.5C211.634 275.872 208.92 283.129 207.38 290.617C206.668 294.044 208.208 297.932 208.728 301.608L219.18 298.837C220.624 304.9 220.624 311.445 212.616 313.331C204.608 315.217 202.26 308.75 201.317 302.34C199.546 290.078 206.245 269.039 216.697 257.451Z" fill="#EEC82C"/>
<path d="M402.758 240.743C401.179 245.42 399.485 250.079 398.061 254.795C396.241 259.929 394.863 265.21 393.942 270.579C393.499 274.063 395.019 277.817 395.655 281.455L407.377 277.971C405.953 282.898 405.337 287.845 402.989 291.734C401.949 293.447 395.674 294.448 394.692 293.312C391.631 289.712 388.552 285.093 388.013 280.569C386.55 268.519 392.594 251.08 402.758 240.743Z" fill="#EEC82C"/>
<path d="M473.69 250.291C473.825 252.851 474.826 255.546 473.902 257.105C471.59 260.508 469.015 263.726 466.202 266.729C462.853 263.919 458.368 261.686 456.578 258.106C454.946 254.255 454.687 249.959 455.846 245.94C458.984 234.391 462.988 222.957 466.645 211.484L470.745 212.736C469.205 217.394 467.511 222.014 466.145 226.71C464.194 232.447 462.707 238.33 461.698 244.304C461.275 247.653 463.18 251.291 464.047 254.814L473.69 250.291Z" fill="#EEC82C"/>
<path d="M604.179 346.863C602.524 352.137 601.6 357.123 599.252 361.338C598.405 362.878 592.63 363.841 591.764 362.801C588.684 359.182 585.335 354.793 584.661 350.308C582.736 338.201 590.147 318.066 599.406 310.424C597.77 315.352 596.018 320.241 594.516 325.208C592.796 330.018 591.507 334.971 590.667 340.01C590.282 343.494 591.725 347.19 592.341 350.79L604.179 346.863Z" fill="#EEC82C"/>
<path d="M586.085 204.69C586.085 207.096 586.99 210.137 585.874 211.947C583.949 215.142 581.119 219.126 578.02 219.8C575.768 220.301 570.551 216.412 569.993 213.775C568.395 207.289 568.191 200.538 569.396 193.968C571.745 183.997 576.114 174.488 579.618 164.786L582.967 165.884C581.562 170.465 580.041 175.008 578.809 179.627C576.923 186.03 575.399 192.533 574.247 199.107C573.843 201.86 575.633 204.882 576.422 207.866L586.085 204.69Z" fill="#EEC82C"/>
<path d="M204.416 483.8C204.416 486.803 205.397 490.422 204.146 492.886C202.645 495.87 199.392 499.585 196.62 499.816C193.848 500.047 188.92 496.813 188.266 494.291C186.649 488.197 186.405 481.819 187.553 475.62C189.902 465.437 194.04 455.678 197.428 445.745L201.143 447.054C199.026 453.502 196.832 459.932 194.868 466.438C193.617 469.717 192.845 473.159 192.577 476.659C192.863 480.528 193.508 484.362 194.502 488.112L204.416 483.8Z" fill="#EEC82C"/>
<path d="M708.086 284.669C706.68 289.02 705.102 293.312 703.889 297.701C701.996 303.801 700.504 310.019 699.423 316.315C699 319.433 700.732 322.84 701.483 326.112L710.78 322.551C710.954 324.342 712.032 326.959 711.185 328.499C708.974 331.942 706.496 335.205 703.774 338.259C700.501 335.352 694.862 332.734 694.438 329.443C693.542 321.859 694.031 314.176 695.882 306.767C697.807 298.74 701.81 291.233 704.909 283.495L708.086 284.669Z" fill="#EEC82C"/>
</svg>
